<svg width="414" height="286" viewBox="0 0 414 286" fill="none" xmlns="http://www.w3.org/2000/svg">
<g filter="url(#filter0_i_96_3)">
<rect width="414" height="286" rx="10" fill="black"/>
</g>
<g filter="url(#filter1_dd_96_3)">
<path d="M39.3894 157L48.2294 130.76H51.9894L60.8294 157H57.3094L52.7494 142.32C52.296 140.853 51.8427 139.4 51.3894 137.96C50.9627 136.493 50.5494 135 50.1494 133.48H49.9894C49.5627 135 49.136 136.493 48.7094 137.96C48.2827 139.4 47.8427 140.853 47.3894 142.32L42.7894 157H39.3894ZM44.0294 149V146.32H56.0694V149H44.0294ZM72.9338 157.48C70.4004 157.48 68.3604 156.6 66.8138 154.84C65.2671 153.053 64.4938 150.547 64.4938 147.32C64.4938 145.213 64.9071 143.4 65.7338 141.88C66.5871 140.333 67.6804 139.147 69.0138 138.32C70.3738 137.493 71.8138 137.08 73.3338 137.08C74.4804 137.08 75.5204 137.307 76.4538 137.76C77.4138 138.187 78.3071 138.8 79.1338 139.6H79.2538L79.0938 136V128.52H82.3738V157H79.6538L79.3738 154.44H79.2538C78.4804 155.267 77.5338 155.987 76.4138 156.6C75.3204 157.187 74.1604 157.48 72.9338 157.48ZM73.6138 154.72C74.5738 154.72 75.5071 154.48 76.4138 154C77.3204 153.493 78.2138 152.76 79.0938 151.8V142.12C78.2138 141.293 77.3471 140.707 76.4938 140.36C75.6671 140.013 74.8271 139.84 73.9738 139.84C72.8538 139.84 71.8271 140.16 70.8938 140.8C69.9871 141.413 69.2538 142.28 68.6938 143.4C68.1604 144.493 67.8938 145.787 67.8938 147.28C67.8938 149.6 68.4004 151.427 69.4138 152.76C70.4271 154.067 71.8271 154.72 73.6138 154.72ZM96.3181 157L88.1181 137.56H91.4381L95.9181 148.6C96.3181 149.56 96.6915 150.52 97.0381 151.48C97.4115 152.44 97.7715 153.387 98.1181 154.32H98.2781C98.6248 153.387 98.9715 152.44 99.3181 151.48C99.6648 150.52 100.025 149.56 100.398 148.6L104.878 137.56H108.038L99.9981 157H96.3181ZM123.263 157.48C121.316 157.48 119.543 157.08 117.943 156.28C116.369 155.48 115.116 154.32 114.183 152.8C113.249 151.253 112.783 149.4 112.783 147.24C112.783 145.133 113.249 143.32 114.183 141.8C115.116 140.28 116.329 139.12 117.823 138.32C119.343 137.493 120.969 137.08 122.703 137.08C124.569 137.08 126.156 137.467 127.463 138.24C128.796 138.987 129.809 140.04 130.503 141.4C131.223 142.76 131.583 144.36 131.583 146.2C131.583 146.573 131.569 146.933 131.543 147.28C131.516 147.627 131.476 147.933 131.423 148.2H114.983V145.64H129.463L128.623 146.56C128.623 144.267 128.089 142.547 127.023 141.4C125.983 140.253 124.569 139.68 122.783 139.68C121.583 139.68 120.463 139.973 119.423 140.56C118.409 141.147 117.596 142 116.983 143.12C116.369 144.24 116.063 145.613 116.063 147.24C116.063 148.92 116.396 150.32 117.063 151.44C117.729 152.56 118.636 153.413 119.783 154C120.929 154.56 122.223 154.84 123.663 154.84C124.836 154.84 125.889 154.68 126.823 154.36C127.783 154.013 128.703 153.56 129.583 153L130.783 155.16C129.823 155.8 128.716 156.347 127.463 156.8C126.236 157.253 124.836 157.48 123.263 157.48ZM137.767 157V137.56H140.487L140.767 140.88H140.927C141.94 139.787 143.034 138.88 144.207 138.16C145.38 137.44 146.727 137.08 148.247 137.08C150.54 137.08 152.234 137.747 153.327 139.08C154.42 140.413 154.967 142.36 154.967 144.92V157H151.687V145.36C151.687 143.52 151.34 142.16 150.647 141.28C149.954 140.373 148.807 139.92 147.207 139.92C146.06 139.92 145.034 140.213 144.127 140.8C143.22 141.387 142.194 142.267 141.047 143.44V157H137.767ZM173.791 157.48C171.898 157.48 170.405 157.147 169.311 156.48C168.218 155.787 167.431 154.84 166.951 153.64C166.498 152.44 166.271 151.04 166.271 149.44V140.24H160.791V137.76L166.391 137.56L166.831 131.32H169.551V137.56H179.111V140.24H169.551V149.48C169.551 150.627 169.698 151.6 169.991 152.4C170.285 153.2 170.791 153.8 171.511 154.2C172.231 154.6 173.218 154.8 174.471 154.8C175.405 154.8 176.245 154.72 176.991 154.56C177.738 154.4 178.458 154.187 179.151 153.92L179.871 156.32C178.991 156.64 178.058 156.907 177.071 157.12C176.111 157.36 175.018 157.48 173.791 157.48ZM218 157.48C216.293 157.48 214.707 157.08 213.24 156.28C211.8 155.48 210.627 154.32 209.72 152.8C208.84 151.28 208.4 149.453 208.4 147.32C208.4 145.133 208.84 143.28 209.72 141.76C210.627 140.24 211.8 139.08 213.24 138.28C214.707 137.48 216.293 137.08 218 137.08C219.707 137.08 221.28 137.48 222.72 138.28C224.187 139.08 225.36 140.24 226.24 141.76C227.147 143.28 227.6 145.133 227.6 147.32C227.6 149.453 227.147 151.28 226.24 152.8C225.36 154.32 224.187 155.48 222.72 156.28C221.28 157.08 219.707 157.48 218 157.48ZM218 154.76C219.253 154.76 220.347 154.453 221.28 153.84C222.213 153.2 222.933 152.32 223.44 151.2C223.947 150.08 224.2 148.787 224.2 147.32C224.2 145.827 223.947 144.52 223.44 143.4C222.933 142.253 222.213 141.373 221.28 140.76C220.347 140.12 219.253 139.8 218 139.8C216.747 139.8 215.653 140.12 214.72 140.76C213.813 141.373 213.093 142.253 212.56 143.4C212.053 144.52 211.8 145.827 211.8 147.32C211.8 148.787 212.053 150.08 212.56 151.2C213.093 152.32 213.813 153.2 214.72 153.84C215.653 154.453 216.747 154.76 218 154.76ZM239.664 157V135.92C239.664 134.347 239.944 132.973 240.504 131.8C241.091 130.6 241.958 129.68 243.104 129.04C244.251 128.373 245.718 128.04 247.504 128.04C248.464 128.04 249.398 128.133 250.304 128.32C251.238 128.48 252.171 128.76 253.104 129.16L252.344 131.64C251.544 131.267 250.798 131.027 250.104 130.92C249.438 130.787 248.678 130.72 247.824 130.72C246.091 130.72 244.838 131.173 244.064 132.08C243.291 132.987 242.904 134.227 242.904 135.8V157H239.664ZM234.104 140.24V137.76L239.784 137.56H251.064V140.24H234.104ZM291.993 157.48C290.366 157.48 288.86 157.173 287.473 156.56C286.086 155.947 284.873 155.067 283.833 153.92C282.793 152.747 281.98 151.32 281.393 149.64C280.833 147.933 280.553 146.013 280.553 143.88C280.553 141.08 281.06 138.667 282.073 136.64C283.086 134.587 284.473 133.013 286.233 131.92C287.993 130.827 290.02 130.28 292.313 130.28C293.886 130.28 295.286 130.613 296.513 131.28C297.74 131.92 298.726 132.653 299.473 133.48L297.593 135.6C296.926 134.853 296.153 134.267 295.273 133.84C294.393 133.413 293.406 133.2 292.313 133.2C290.633 133.2 289.166 133.64 287.913 134.52C286.686 135.373 285.726 136.587 285.033 138.16C284.34 139.733 283.993 141.613 283.993 143.8C283.993 146.013 284.34 147.92 285.033 149.52C285.726 151.12 286.686 152.36 287.913 153.24C289.166 154.12 290.633 154.56 292.313 154.56C293.513 154.56 294.593 154.307 295.553 153.8C296.513 153.293 297.406 152.573 298.233 151.64L300.113 153.68C299.1 154.88 297.926 155.813 296.593 156.48C295.26 157.147 293.726 157.48 291.993 157.48ZM313.938 157.48C312.231 157.48 310.644 157.08 309.178 156.28C307.738 155.48 306.564 154.32 305.658 152.8C304.778 151.28 304.338 149.453 304.338 147.32C304.338 145.133 304.778 143.28 305.658 141.76C306.564 140.24 307.738 139.08 309.178 138.28C310.644 137.48 312.231 137.08 313.938 137.08C315.644 137.08 317.218 137.48 318.658 138.28C320.124 139.08 321.298 140.24 322.178 141.76C323.084 143.28 323.538 145.133 323.538 147.32C323.538 149.453 323.084 151.28 322.178 152.8C321.298 154.32 320.124 155.48 318.658 156.28C317.218 157.08 315.644 157.48 313.938 157.48ZM313.938 154.76C315.191 154.76 316.284 154.453 317.218 153.84C318.151 153.2 318.871 152.32 319.378 151.2C319.884 150.08 320.138 148.787 320.138 147.32C320.138 145.827 319.884 144.52 319.378 143.4C318.871 142.253 318.151 141.373 317.218 140.76C316.284 140.12 315.191 139.8 313.938 139.8C312.684 139.8 311.591 140.12 310.658 140.76C309.751 141.373 309.031 142.253 308.498 143.4C307.991 144.52 307.738 145.827 307.738 147.32C307.738 148.787 307.991 150.08 308.498 151.2C309.031 152.32 309.751 153.2 310.658 153.84C311.591 154.453 312.684 154.76 313.938 154.76ZM336.762 157.48C334.229 157.48 332.189 156.6 330.642 154.84C329.095 153.053 328.322 150.547 328.322 147.32C328.322 145.213 328.735 143.4 329.562 141.88C330.415 140.333 331.509 139.147 332.842 138.32C334.202 137.493 335.642 137.08 337.162 137.08C338.309 137.08 339.349 137.307 340.282 137.76C341.242 138.187 342.135 138.8 342.962 139.6H343.082L342.922 136V128.52H346.202V157H343.482L343.202 154.44H343.082C342.309 155.267 341.362 155.987 340.242 156.6C339.149 157.187 337.989 157.48 336.762 157.48ZM337.442 154.72C338.402 154.72 339.335 154.48 340.242 154C341.149 153.493 342.042 152.76 342.922 151.8V142.12C342.042 141.293 341.175 140.707 340.322 140.36C339.495 140.013 338.655 139.84 337.802 139.84C336.682 139.84 335.655 140.16 334.722 140.8C333.815 141.413 333.082 142.28 332.522 143.4C331.989 144.493 331.722 145.787 331.722 147.28C331.722 149.6 332.229 151.427 333.242 152.76C334.255 154.067 335.655 154.72 337.442 154.72ZM363.106 157.48C361.16 157.48 359.386 157.08 357.786 156.28C356.213 155.48 354.96 154.32 354.026 152.8C353.093 151.253 352.626 149.4 352.626 147.24C352.626 145.133 353.093 143.32 354.026 141.8C354.96 140.28 356.173 139.12 357.666 138.32C359.186 137.493 360.813 137.08 362.546 137.08C364.413 137.08 366 137.467 367.306 138.24C368.64 138.987 369.653 140.04 370.346 141.4C371.066 142.76 371.426 144.36 371.426 146.2C371.426 146.573 371.413 146.933 371.386 147.28C371.36 147.627 371.32 147.933 371.266 148.2H354.826V145.64H369.306L368.466 146.56C368.466 144.267 367.933 142.547 366.866 141.4C365.826 140.253 364.413 139.68 362.626 139.68C361.426 139.68 360.306 139.973 359.266 140.56C358.253 141.147 357.44 142 356.826 143.12C356.213 144.24 355.906 145.613 355.906 147.24C355.906 148.92 356.24 150.32 356.906 151.44C357.573 152.56 358.48 153.413 359.626 154C360.773 154.56 362.066 154.84 363.506 154.84C364.68 154.84 365.733 154.68 366.666 154.36C367.626 154.013 368.546 153.56 369.426 153L370.626 155.16C369.666 155.8 368.56 156.347 367.306 156.8C366.08 157.253 364.68 157.48 363.106 157.48Z" fill="#00CC00"/>
</g>
<defs>
<filter id="filter0_i_96_3" x="0" y="-5" width="414" height="291" filterUnits="userSpaceOnUse" color-interpolation-filters="sRGB">
<feFlood flood-opacity="0" result="BackgroundImageFix"/>
<feBlend mode="normal" in="SourceGraphic" in2="BackgroundImageFix" result="shape"/>
<feColorMatrix in="SourceAlpha" type="matrix" values="0 0 0 0 0 0 0 0 0 0 0 0 0 0 0 0 0 0 127 0" result="hardAlpha"/>
<feMorphology radius="10" operator="erode" in="SourceAlpha" result="effect1_innerShadow_96_3"/>
<feOffset dy="-5"/>
<feGaussianBlur stdDeviation="25"/>
<feComposite in2="hardAlpha" operator="arithmetic" k2="-1" k3="1"/>
<feColorMatrix type="matrix" values="0 0 0 0 0 0 0 0 0 0 0 0 0 0 0 0 0 0 0.25 0"/>
<feBlend mode="normal" in2="shape" result="effect1_innerShadow_96_3"/>
</filter>
<filter id="filter1_dd_96_3" x="33.3892" y="122.04" width="344.037" height="41.4399" filterUnits="userSpaceOnUse" color-interpolation-filters="sRGB">
<feFlood flood-opacity="0" result="BackgroundImageFix"/>
<feColorMatrix in="SourceAlpha" type="matrix" values="0 0 0 0 0 0 0 0 0 0 0 0 0 0 0 0 0 0 127 0" result="hardAlpha"/>
<feOffset/>
<feGaussianBlur stdDeviation="2"/>
<feComposite in2="hardAlpha" operator="out"/>
<feColorMatrix type="matrix" values="0 0 0 0 0 0 0 0 0 0.8 0 0 0 0 0 0 0 0 1 0"/>
<feBlend mode="normal" in2="BackgroundImageFix" result="effect1_dropShadow_96_3"/>
<feColorMatrix in="SourceAlpha" type="matrix" values="0 0 0 0 0 0 0 0 0 0 0 0 0 0 0 0 0 0 127 0" result="hardAlpha"/>
<feOffset/>
<feGaussianBlur stdDeviation="3"/>
<feComposite in2="hardAlpha" operator="out"/>
<feColorMatrix type="matrix" values="0 0 0 0 0 0 0 0 0 0.8 0 0 0 0 0 0 0 0 1 0"/>
<feBlend mode="normal" in2="effect1_dropShadow_96_3" result="effect2_dropShadow_96_3"/>
<feBlend mode="normal" in="SourceGraphic" in2="effect2_dropShadow_96_3" result="shape"/>
</filter>
</defs>
</svg>
