<svg width="111" height="100" viewBox="0 0 111 100" fill="none" xmlns="http://www.w3.org/2000/svg">
<g clip-path="url(#clip0_52_115)">
<path d="M110.231 32.0258C107.831 47.0195 100.173 60.6781 88.6197 70.5722C77.0661 80.4662 62.3662 85.9541 47.1349 86.0592C44.0497 86.1774 40.9604 85.9904 37.9123 85.5014C31.5375 84.4217 25.7268 81.1963 21.4492 76.3632C17.1717 71.5301 14.6859 65.3813 14.4065 58.9425C14.4681 51.7609 17.3602 44.8913 22.4588 39.8163C27.557 34.7417 34.4531 31.8689 41.6581 31.8182C48.8631 31.7674 55.7992 34.5428 60.9689 39.5452C66.1389 44.5477 69.1282 51.3757 69.2917 58.5557C69.407 63.0906 67.4361 67.0683 63.3857 67.1832C59.058 67.1832 57.0293 64.1052 57.0293 59.9571V48.4307C57.0309 46.5668 56.293 44.7779 54.9764 43.4541C53.6599 42.1303 51.8716 41.379 50.0016 41.3642H40.3079C37.4883 41.3447 34.7087 42.03 32.2233 43.3574C29.7379 44.6847 27.6259 46.6118 26.0805 48.9625C24.5348 51.3131 23.6047 54.0123 23.3752 56.8134C23.1457 59.6145 23.6241 62.4283 24.7666 64.9977C25.9092 67.5671 27.6795 69.8101 29.9158 71.522C32.1521 73.2338 34.7832 74.3598 37.5686 74.7971C40.3539 75.234 43.2047 74.9682 45.8604 74.0239C48.5161 73.0797 50.8921 71.4872 52.7711 69.3919L53.1101 68.888L53.4494 69.4473C54.6153 71.0261 56.1546 72.2933 57.9303 73.1362C59.7061 73.9791 61.6633 74.3716 63.6279 74.2787C67.1297 74.0251 70.3934 72.417 72.722 69.7979C75.0506 67.1787 76.2597 63.756 76.0911 60.2605C76.1251 57.261 75.7878 54.2687 75.0869 51.3514C73.2891 43.1104 68.4945 35.8241 61.6272 30.8981C54.76 25.9721 46.3062 23.7545 37.8957 24.6727C29.4853 25.5909 21.7136 29.58 16.0791 35.8709C10.4442 42.1623 7.34524 50.31 7.37949 58.7435C7.48761 67.6861 11.0691 76.2388 17.3714 82.6046C23.6731 88.9702 32.2053 92.6531 41.1746 92.8793C41.1746 92.8793 43.7132 93.1095 46.5752 93.0439C60.4871 92.9561 74.0849 88.9123 85.7705 81.3877C85.9367 81.2724 86.1029 81.5026 85.9924 81.6705C80.3032 87.7791 73.3463 92.578 65.6063 95.7331C57.8663 98.8881 49.5292 100.323 41.1757 99.939C35.7147 100.038 30.2902 99.0329 25.2294 96.985C20.1687 94.9371 15.5767 91.8885 11.7304 88.0233C7.88378 84.1578 4.86252 79.5559 2.84885 74.495C0.835167 69.4341 -0.129209 64.0192 0.0138819 58.5767C0.0165103 52.0882 1.53741 45.6897 4.45572 39.8897C7.37404 34.0897 11.6093 29.048 16.8251 25.1652C23.8344 20.0203 32.305 17.2331 41.0099 17.2073H54.0201C59.1023 17.2035 64.128 16.1448 68.7771 14.0988C73.4263 12.0527 77.5969 9.064 81.0235 5.32308C81.0959 5.24308 81.1922 5.18832 81.2981 5.16684C81.4039 5.14401 81.5142 5.15494 81.6135 5.19807C81.7127 5.24121 81.7958 5.31436 81.8509 5.40718C81.9066 5.50034 81.9317 5.60837 81.9226 5.71676C81.3711 11.5453 79.4244 17.1568 76.246 22.08C76.1989 22.1655 76.1777 22.2628 76.1852 22.36C76.1926 22.4573 76.2283 22.5503 76.2878 22.6277C76.3471 22.705 76.4275 22.7635 76.5195 22.7961C76.6114 22.8287 76.7108 22.8341 76.8057 22.8115C82.8115 21.4592 88.4149 18.7208 93.165 14.8164C97.9152 10.912 101.68 5.95073 104.155 0.331833C104.218 0.231421 104.305 0.148046 104.408 0.0889583C104.512 0.0306414 104.629 0 104.748 0C104.867 0 104.984 0.0306414 105.088 0.0889583C105.191 0.147683 105.278 0.231058 105.34 0.331833C110.439 10.0677 112.159 21.2128 110.231 32.0258ZM41.1412 48.2868C39.6446 48.2865 38.1666 48.6171 36.8137 49.2547C35.4608 49.8923 34.2666 50.8211 33.3171 51.9741C32.3677 53.1271 31.6867 54.4757 31.3232 55.9226C30.9596 57.3695 30.9226 58.8788 31.2148 60.3417C31.6053 62.2984 32.5691 64.0958 33.9844 65.5066C35.3996 66.9174 37.2028 67.8783 39.1659 68.2678C40.6337 68.5587 42.1479 68.5216 43.5995 68.159C45.051 67.7965 46.4039 67.1175 47.5605 66.1712C48.7172 65.2248 49.6489 64.0345 50.2885 62.6861C50.928 61.3376 51.2596 59.8645 51.2592 58.373V48.9564C51.2502 48.7762 51.1743 48.6059 51.0464 48.4784C50.9184 48.3508 50.7475 48.2752 50.5668 48.2662L41.1412 48.2868Z" fill="#702AF7"/>
</g>
<defs>
<clipPath id="clip0_52_115">
<rect width="111" height="100" fill="white"/>
</clipPath>
</defs>
</svg>
