<svg width="89" height="100" viewBox="0 0 89 100" fill="none" xmlns="http://www.w3.org/2000/svg">
<g clip-path="url(#clip0_52_105)">
<path d="M88.6045 29.6027C88.6038 27.9378 88.2472 26.4666 87.5262 25.2044C86.8179 23.9624 85.7572 22.9218 84.3345 22.099C72.5902 15.3363 60.8346 8.59433 49.0942 1.82479C45.929 -4.96209e-05 42.8602 0.0668222 39.7185 1.91786C35.0439 4.67062 11.64 18.0612 4.66598 22.0952C1.79386 23.7559 0.396291 26.2971 0.3956 29.5996C0.391113 43.1997 0.3956 56.7998 0.391113 70.3999C0.391113 72.0283 0.733171 73.4712 1.42247 74.7145C2.13109 75.9937 3.20662 77.063 4.66218 77.9044C11.6366 81.9384 35.0436 95.3279 39.7171 98.0817C42.8602 99.9337 45.929 99.9999 49.0952 98.1748C60.836 91.4049 72.5923 84.6629 84.3383 77.9002C85.7938 77.0592 86.8693 75.9892 87.578 74.7111C88.2662 73.4674 88.609 72.0248 88.609 70.3961C88.609 70.3961 88.609 43.2032 88.6045 29.6027Z" fill="#A179DC"/>
<path d="M44.6349 49.8673L1.42236 74.7146C2.13099 75.9938 3.20652 77.063 4.66208 77.9044C11.6365 81.9384 35.0435 95.3279 39.717 98.0817C42.8601 99.9338 45.9289 100 49.0951 98.1748C60.8359 91.4049 72.5922 84.6629 84.3382 77.9003C85.7937 77.0592 86.8692 75.9893 87.5779 74.7111L44.6349 49.8673Z" fill="#280068"/>
<path d="M88.6042 29.6028C88.6036 27.9379 88.247 26.4667 87.526 25.2044L44.6348 49.8676L87.5777 74.7111C88.266 73.4675 88.608 72.0249 88.6087 70.3962C88.6087 70.3962 88.6087 43.2032 88.6042 29.6028Z" fill="#390091"/>
<path d="M70.0773 40.5787V45.2232H74.7281V40.5787H77.0535V45.2232H81.7042V47.5454H77.0535V52.1895H81.7042V54.5118H77.0535V59.1562H74.7281V54.5118H70.0773V59.1562H67.752V54.5118H63.1016V52.1895H67.752V47.5454H63.1016V45.2232H67.752V40.5787H70.0773ZM74.7281 47.545H70.0773V52.1895H74.7281V47.545Z" fill="white"/>
<path d="M44.7299 17.2536C56.8604 17.2536 67.4511 23.8325 73.1239 33.6116L73.0687 33.5175L58.7961 41.7241C55.9844 36.9697 50.8297 33.7609 44.916 33.6947L44.7296 33.6937C35.7122 33.6937 28.4016 40.9944 28.4016 49.9997C28.3986 52.838 29.1412 55.6275 30.5551 58.0898C33.3695 62.9965 38.6606 66.306 44.7299 66.306C50.8369 66.306 56.158 62.9545 58.958 57.9953L58.89 58.1142L73.1408 66.3587C67.5301 76.0551 57.0844 82.6137 45.0951 82.7444L44.7299 82.7464C32.5612 82.7464 21.9405 76.1268 16.2818 66.296C13.5195 61.4968 11.939 55.933 11.939 49.9997C11.939 31.9147 26.6195 17.2532 44.7296 17.2532L44.7299 17.2536Z" fill="white"/>
</g>
<defs>
<clipPath id="clip0_52_105">
<rect width="89" height="100" fill="white"/>
</clipPath>
</defs>
</svg>
