<svg width="174" height="66" viewBox="0 0 174 66" fill="none" xmlns="http://www.w3.org/2000/svg">
<g clip-path="url(#clip0_52_121)">
<path d="M8.38084 56.7883C7.9354 56.3152 7.39252 55.9395 6.79396 55.6751C6.19541 55.4107 5.55509 55.2855 4.90086 55.2855C4.24662 55.2715 3.6063 55.4107 3.00775 55.6612C2.40919 55.9256 1.86631 56.3013 1.42088 56.7744C0.96152 57.2337 0.599602 57.7764 0.362964 58.3747C0.126325 58.987 0.00104574 59.6271 0.00104574 60.2673C-0.0128742 60.9213 0.112405 61.5614 0.362964 62.1598C0.613522 62.7582 0.97544 63.3009 1.4348 63.7601C1.88036 64.2334 2.42031 64.608 3.01974 64.8597C3.61917 65.1114 4.26476 65.2346 4.91478 65.2212C5.56341 65.2248 6.20606 65.0972 6.8041 64.8461C7.40213 64.595 7.94319 64.2256 8.39476 63.7601C8.86803 63.3148 9.22995 62.7721 9.48051 62.1737C9.73107 61.5753 9.85635 60.9352 9.85635 60.2812C9.85635 59.6271 9.73107 58.987 9.48051 58.3887C9.21603 57.7764 8.85411 57.2337 8.38084 56.7883ZM66.6357 45.4888C66.5661 48.6059 66.7192 51.737 67.0811 54.8402H66.9141C66.5243 54.0748 65.6613 52.6554 64.3389 50.582L32.6015 0.777771H22.9689V64.3585H30.3743V18.395C30.4578 15.4866 30.3325 12.5783 30.0263 9.66988H30.3047C30.8337 11.0615 31.5157 12.3974 32.3231 13.6498L64.9235 64.3585H74.0411V0.777771H66.6357V45.4888ZM124.25 57.3728H98.0808V35.3443H120.979V28.6369H98.0808V7.51296H122.649V0.777771H90.4944V64.3585H124.208L124.25 57.3728ZM129.916 0.777771V7.51296H148.151V64.3585H155.556V7.51296H174V0.777771H129.916Z" fill="#621EE5"/>
</g>
<defs>
<clipPath id="clip0_52_121">
<rect width="174" height="66" fill="white"/>
</clipPath>
</defs>
</svg>
