<svg width="1903" height="1377" viewBox="0 0 1903 1377" fill="none" xmlns="http://www.w3.org/2000/svg">
<g clip-path="url(#clip0_117_6)">
<rect width="1903" height="1408" transform="matrix(1 0 0 -1 0 1408)" fill="#C62368"/>
<path d="M1903 890.482H0V1.48193H1903V890.482Z" fill="#C62368"/>
<path d="M0 256.328L45.4606 261.81C90.9211 267.144 181.842 278.109 272.34 284.776C363.05 291.444 453.125 293.814 543.835 285.221C634.333 276.627 725.254 256.773 815.753 255.884C906.462 254.847 996.538 272.627 1087.25 280.035C1177.75 287.443 1268.67 284.48 1359.16 281.22C1449.87 278.109 1539.95 274.553 1630.66 261.218C1721.16 247.883 1812.08 224.769 1857.54 213.064L1903 201.507V-6.10352e-05H1857.54C1812.08 -6.10352e-05 1721.16 -6.10352e-05 1630.66 -6.10352e-05C1539.95 -6.10352e-05 1449.87 -6.10352e-05 1359.16 -6.10352e-05C1268.67 -6.10352e-05 1177.75 -6.10352e-05 1087.25 -6.10352e-05C996.538 -6.10352e-05 906.462 -6.10352e-05 815.753 -6.10352e-05C725.254 -6.10352e-05 634.333 -6.10352e-05 543.835 -6.10352e-05C453.125 -6.10352e-05 363.05 -6.10352e-05 272.34 -6.10352e-05C181.842 -6.10352e-05 90.9211 -6.10352e-05 45.4606 -6.10352e-05H0V256.328Z" fill="#C62368"/>
<path d="M0 198.544L45.4606 206.693C90.9211 214.842 181.842 231.14 272.34 237.363C363.05 243.438 453.125 239.586 543.835 236.622C634.333 233.659 725.254 231.585 815.753 230.399C906.462 229.214 996.538 228.621 1087.25 226.399C1177.75 224.176 1268.67 220.324 1359.16 217.509C1449.87 214.842 1539.95 213.36 1630.66 215.286C1721.16 217.361 1812.08 222.695 1857.54 225.51L1903 228.177V0.000274658H1857.54C1812.08 0.000274658 1721.16 0.000274658 1630.66 0.000274658C1539.95 0.000274658 1449.87 0.000274658 1359.16 0.000274658C1268.67 0.000274658 1177.75 0.000274658 1087.25 0.000274658C996.538 0.000274658 906.462 0.000274658 815.753 0.000274658C725.254 0.000274658 634.333 0.000274658 543.835 0.000274658C453.125 0.000274658 363.05 0.000274658 272.34 0.000274658C181.842 0.000274658 90.9211 0.000274658 45.4606 0.000274658H0V198.544Z" fill="#AA256F"/>
<path d="M0 226.695L45.4606 226.992C90.9211 227.14 181.842 227.732 272.34 220.472C363.05 213.36 453.125 198.543 543.835 194.839C634.333 191.135 725.254 198.543 815.753 196.765C906.462 195.136 996.538 184.171 1087.25 177.8C1177.75 171.429 1268.67 169.355 1359.16 176.318C1449.87 183.282 1539.95 198.988 1630.66 199.581C1721.16 200.025 1812.08 185.208 1857.54 177.8L1903 170.392V0.000152588H1857.54C1812.08 0.000152588 1721.16 0.000152588 1630.66 0.000152588C1539.95 0.000152588 1449.87 0.000152588 1359.16 0.000152588C1268.67 0.000152588 1177.75 0.000152588 1087.25 0.000152588C996.538 0.000152588 906.462 0.000152588 815.753 0.000152588C725.254 0.000152588 634.333 0.000152588 543.835 0.000152588C453.125 0.000152588 363.05 0.000152588 272.34 0.000152588C181.842 0.000152588 90.9211 0.000152588 45.4606 0.000152588H0V226.695Z" fill="#8B2970"/>
<path d="M0 165.947L45.4606 162.984C90.9211 160.02 181.842 154.094 272.34 149.649C363.05 145.204 453.125 142.24 543.835 142.24C634.333 142.24 725.254 145.204 815.753 150.093C906.462 155.131 996.538 161.946 1087.25 165.651C1177.75 169.355 1268.67 169.947 1359.16 168.169C1449.87 166.391 1539.95 162.539 1630.66 160.465C1721.16 158.539 1812.08 158.539 1857.54 158.539H1903V0.000244141H1857.54C1812.08 0.000244141 1721.16 0.000244141 1630.66 0.000244141C1539.95 0.000244141 1449.87 0.000244141 1359.16 0.000244141C1268.67 0.000244141 1177.75 0.000244141 1087.25 0.000244141C996.538 0.000244141 906.462 0.000244141 815.753 0.000244141C725.254 0.000244141 634.333 0.000244141 543.835 0.000244141C453.125 0.000244141 363.05 0.000244141 272.34 0.000244141C181.842 0.000244141 90.9211 0.000244141 45.4606 0.000244141H0V165.947Z" fill="#6D2C6D"/>
<path d="M0 142.24L45.4606 145.944C90.9211 149.649 181.842 157.057 272.34 153.797C363.05 150.686 453.125 136.758 543.835 135.128C634.333 133.35 725.254 143.722 815.753 146.389C906.462 149.204 996.538 144.166 1087.25 146.685C1177.75 149.204 1268.67 158.983 1359.16 161.057C1449.87 162.984 1539.95 157.057 1630.66 158.539C1721.16 160.02 1812.08 168.91 1857.54 173.355L1903 177.8V0.000289917H1857.54C1812.08 0.000289917 1721.16 0.000289917 1630.66 0.000289917C1539.95 0.000289917 1449.87 0.000289917 1359.16 0.000289917C1268.67 0.000289917 1177.75 0.000289917 1087.25 0.000289917C996.538 0.000289917 906.462 0.000289917 815.753 0.000289917C725.254 0.000289917 634.333 0.000289917 543.835 0.000289917C453.125 0.000289917 363.05 0.000289917 272.34 0.000289917C181.842 0.000289917 90.9211 0.000289917 45.4606 0.000289917H0V142.24Z" fill="#4F2B64"/>
<path d="M0 88.9002L45.4606 97.3458C90.9211 105.643 181.842 122.534 272.34 131.128C363.05 139.721 453.125 140.314 543.835 139.277C634.333 138.24 725.254 135.869 815.753 129.202C906.462 122.534 996.538 111.57 1087.25 110.088C1177.75 108.606 1268.67 116.607 1359.16 118.089C1449.87 119.571 1539.95 114.533 1630.66 116.607C1721.16 118.534 1812.08 127.424 1857.54 131.869L1903 136.314V0.000244141H1857.54C1812.08 0.000244141 1721.16 0.000244141 1630.66 0.000244141C1539.95 0.000244141 1449.87 0.000244141 1359.16 0.000244141C1268.67 0.000244141 1177.75 0.000244141 1087.25 0.000244141C996.538 0.000244141 906.462 0.000244141 815.753 0.000244141C725.254 0.000244141 634.333 0.000244141 543.835 0.000244141C453.125 0.000244141 363.05 0.000244141 272.34 0.000244141C181.842 0.000244141 90.9211 0.000244141 45.4606 0.000244141H0V88.9002Z" fill="#342857"/>
<path d="M0 88.9002L45.4606 86.974C90.9211 84.8997 181.842 81.0474 272.34 79.2694C363.05 77.4914 453.125 78.084 543.835 78.973C634.333 80.0102 725.254 81.4919 815.753 83.7144C906.462 85.9369 996.538 88.9002 1087.25 90.0855C1177.75 91.419 1268.67 90.8264 1359.16 92.6044C1449.87 94.3824 1539.95 98.2347 1630.66 94.3824C1721.16 90.3819 1812.08 78.5285 1857.54 72.6019L1903 66.6752V0.000190735H1857.54C1812.08 0.000190735 1721.16 0.000190735 1630.66 0.000190735C1539.95 0.000190735 1449.87 0.000190735 1359.16 0.000190735C1268.67 0.000190735 1177.75 0.000190735 1087.25 0.000190735C996.538 0.000190735 906.462 0.000190735 815.753 0.000190735C725.254 0.000190735 634.333 0.000190735 543.835 0.000190735C453.125 0.000190735 363.05 0.000190735 272.34 0.000190735C181.842 0.000190735 90.9211 0.000190735 45.4606 0.000190735H0V88.9002Z" fill="#1C2247"/>
<path d="M0 66.6753L45.4606 68.6014C90.9211 70.6758 181.842 74.5281 272.34 76.3061C363.05 78.0841 453.125 77.4914 543.835 78.2323C634.333 78.9731 725.254 81.0475 815.753 80.7511C906.462 80.4548 996.538 78.0841 1087.25 75.5653C1177.75 73.0465 1268.67 70.6758 1359.16 71.1203C1449.87 71.5648 1539.95 75.1208 1630.66 77.4914C1721.16 80.0103 1812.08 81.492 1857.54 82.2328L1903 82.9736V0.000297546H1857.54C1812.08 0.000297546 1721.16 0.000297546 1630.66 0.000297546C1539.95 0.000297546 1449.87 0.000297546 1359.16 0.000297546C1268.67 0.000297546 1177.75 0.000297546 1087.25 0.000297546C996.538 0.000297546 906.462 0.000297546 815.753 0.000297546C725.254 0.000297546 634.333 0.000297546 543.835 0.000297546C453.125 0.000297546 363.05 0.000297546 272.34 0.000297546C181.842 0.000297546 90.9211 0.000297546 45.4606 0.000297546H0V66.6753Z" fill="#091B35"/>
<path d="M0 28.1519L45.4606 32.1524C90.9211 36.0048 181.842 44.0058 272.34 46.9691C363.05 49.9324 453.125 47.8581 543.835 48.1544C634.333 48.4507 725.254 50.8214 815.753 52.5994C906.462 54.3774 996.538 55.2664 1087.25 52.3031C1177.75 49.3397 1268.67 42.5241 1359.16 40.4497C1449.87 38.5236 1539.95 41.4869 1630.66 42.6722C1721.16 44.0057 1812.08 43.4131 1857.54 43.2649L1903 42.9686V0.000236511H1857.54C1812.08 0.000236511 1721.16 0.000236511 1630.66 0.000236511C1539.95 0.000236511 1449.87 0.000236511 1359.16 0.000236511C1268.67 0.000236511 1177.75 0.000236511 1087.25 0.000236511C996.538 0.000236511 906.462 0.000236511 815.753 0.000236511C725.254 0.000236511 634.333 0.000236511 543.835 0.000236511C453.125 0.000236511 363.05 0.000236511 272.34 0.000236511C181.842 0.000236511 90.9211 0.000236511 45.4606 0.000236511H0V28.1519Z" fill="#001122"/>
<path d="M1648.21 1036.42C1766.59 1049.52 1940.09 1122.23 1908.5 1237.06C1907.75 1239.8 1906.92 1242.66 1906.01 1245.64C1895.85 1279.06 1873.89 1306.44 1845.65 1327.68C1729.98 1414.71 1599.01 1340.9 1587.85 1196.57C1584.09 1147.97 1587.87 1035.84 1636.62 1035.77C1640.39 1035.76 1644.27 1035.99 1648.21 1036.42Z" fill="#AA256F" fill-opacity="0.5"/>
<path d="M1580.73 738.573C1486.13 839.75 1284.69 797.572 1226.9 671.694C1225.38 668.379 1223.9 665.027 1222.45 661.639C1204.1 618.742 1302.57 563.956 1407.49 516.839C1538.96 457.803 1602.13 481.878 1592.98 625.701C1591.21 653.557 1605.62 703.894 1590.02 727.039C1587.4 730.925 1584.28 734.779 1580.73 738.573Z" fill="#AA256F" fill-opacity="0.5"/>
<path d="M20.0774 883.869C141.362 906.286 143.514 1058.06 264.975 1036.63C281.67 1033.68 288.582 1043.44 278.623 1080.71C273.251 1100.82 263.956 1119.27 251.749 1135.98C144.014 1283.39 -94.466 1152.42 -29.9508 981.608C-18.0777 950.173 -12.9656 877.761 20.0774 883.869Z" fill="#AA256F" fill-opacity="0.5"/>
<path d="M635.747 1283.16C735.09 1183.91 937.284 1255.93 999.394 1381.87C1009.32 1402 1017.87 1423.69 1024.96 1446.33C1038.53 1489.65 1010.83 1492.96 967.909 1484.87C847.759 1462.24 668.872 1525.62 628.529 1410.2C619.652 1384.81 608.641 1327.03 620.872 1303.07C624.461 1296.04 629.526 1289.38 635.747 1283.16Z" fill="#AA256F" fill-opacity="0.5"/>
<path d="M328.861 353.566C441.284 283.452 619.203 355.422 654.04 483.254C655.231 487.625 656.351 492.045 657.399 496.508C667.845 541.005 555.681 573.123 442.112 596.491C309.926 623.69 255.106 591.809 291.703 461.91C299.369 434.699 294.582 381.876 315.785 363.176C319.605 359.807 323.998 356.599 328.861 353.566Z" fill="#AA256F" fill-opacity="0.5"/>
</g>
<defs>
<clipPath id="clip0_117_6">
<rect width="1903" height="1408" fill="white" transform="matrix(1 0 0 -1 0 1408)"/>
</clipPath>
</defs>
</svg>
