<svg width="1903" height="747" viewBox="0 0 1903 747" fill="none" xmlns="http://www.w3.org/2000/svg">
<path d="M988.423 494.388C1061.77 593.688 938.922 658.167 849.103 573.439C834.185 559.366 816.775 549.697 795.052 550.07C781.974 550.294 770.001 550.692 759.261 550.932C668.229 552.971 728.573 422.14 796.265 361.31V361.31C830.704 330.362 884.389 385.227 918.056 417.019C947.808 445.115 971.08 470.911 988.423 494.388Z" fill="#AA256F" fill-opacity="0.5"/>
<path d="M695.12 228.074C646.94 274.295 572.437 304.29 507.906 287.033C465.107 275.589 440.869 234.482 440.869 170.78C440.869 104.785 488.838 180.092 572.008 114.646V114.646C664.51 41.8568 790.039 117.844 714.133 207.795C708.167 214.864 701.781 221.683 695.12 228.074Z" fill="#AA256F" fill-opacity="0.5"/>
<path d="M1715.54 218.634C1703.17 138.065 1821.88 119.34 1849.91 195.893C1856.31 213.395 1866.85 228.317 1888.99 232.758C1939.07 242.807 1927.63 323.477 1889.64 388.122C1860.41 437.86 1786.01 475.595 1798.42 419.253V419.253C1808.34 374.183 1757.53 325.006 1737.43 283.443C1725.5 258.771 1718.39 237.201 1715.54 218.634Z" fill="#AA256F" fill-opacity="0.5"/>
<path d="M177.284 557.609C178.696 431.745 126.122 356.027 3.27879 383.886C-18.3955 388.801 -27.2016 383.275 -10.28 351.138C-1.36982 334.216 10.8666 319.975 25.4284 308.221C152.402 205.729 332.928 374.456 245.843 512.405V512.405C226.693 542.739 177.37 598.043 177.264 562.173C177.26 560.694 177.267 559.172 177.284 557.609Z" fill="#AA256F" fill-opacity="0.5"/>
</svg>
